<svg
        xmlns="http://www.w3.org/2000/svg"
        xmlns:xlink="http://www.w3.org/1999/xlink"
        width="16px" height="14px">
    <path fill-rule="evenodd"  fill="rgb(183, 183, 183)"
          d="M15.000,2.000 L1.000,2.000 C0.448,2.000 0.000,1.552 0.000,1.000 C0.000,0.448 0.448,-0.000 1.000,-0.000 L15.000,-0.000 C15.552,-0.000 16.000,0.448 16.000,1.000 C16.000,1.552 15.552,2.000 15.000,2.000 ZM1.000,6.000 L11.000,6.000 C11.552,6.000 12.000,6.448 12.000,7.000 C12.000,7.552 11.552,8.000 11.000,8.000 L1.000,8.000 C0.448,8.000 0.000,7.552 0.000,7.000 C0.000,6.448 0.448,6.000 1.000,6.000 ZM1.000,12.000 L15.000,12.000 C15.552,12.000 16.000,12.448 16.000,13.000 C16.000,13.552 15.552,14.000 15.000,14.000 L1.000,14.000 C0.448,14.000 0.000,13.552 0.000,13.000 C0.000,12.448 0.448,12.000 1.000,12.000 Z"/>
</svg>